<?xml version="1.0" standalone="no"?><!DOCTYPE svg PUBLIC "-//W3C//DTD SVG 1.1//EN" "http://www.w3.org/Graphics/SVG/1.1/DTD/svg11.dtd"><svg t="1691635918593" class="icon" viewBox="0 0 1024 1024" version="1.1" xmlns="http://www.w3.org/2000/svg" p-id="9921" xmlns:xlink="http://www.w3.org/1999/xlink" width="48" height="48"><path d="M512 0c282.769655 0 512 229.230345 512 512S794.769655 1024 512 1024 0 794.769655 0 512 229.230345 0 512 0z" fill="#FE4F60" p-id="9922"></path><path d="M1024 512c0 282.769655-229.230345 512-512 512-152.628966 0-289.655172-66.78069-383.426207-172.711724C218.924138 931.288276 337.721379 979.862069 467.862069 979.862069c282.769655 0 512-229.230345 512-512 0-130.14069-48.573793-248.937931-128.573793-339.288276C957.21931 222.344828 1024 359.371034 1024 512z" fill="#E84857" p-id="9923"></path><path d="M938.173793 228.171034C856.937931 173.947586 759.326897 142.344828 654.344828 142.344828c-410.994759 0-650.813793 459.281655-426.173794 795.828965C90.615172 846.388966 0 689.787586 0 512 0 229.230345 229.230345 0 512 0c177.787586 0 334.388966 90.615172 426.173793 228.171034z" fill="#FF6D7A" p-id="9924"></path><path d="M512 512m-372.965517 0a372.965517 372.965517 0 1 0 745.931034 0 372.965517 372.965517 0 1 0-745.931034 0Z" fill="#F1FAFC" p-id="9925"></path><path d="M487.033379 536.966621l-173.241379-173.24138c-13.790897-13.78869-13.790897-36.146759 0-49.935448 13.78869-13.790897 36.146759-13.790897 49.935448 0L476.689655 426.754207V357.517241c0-19.500138 15.808-35.310345 35.310345-35.310344s35.310345 15.810207 35.310345 35.310344v154.482759c0 31.393103-38.095448 47.159172-60.276966 24.966621z" fill="#4D4E59" p-id="9926"></path><path d="M242.758621 512c0 19.508966-15.801379 35.310345-35.310345 35.310345H140.689655a377.213793 377.213793 0 0 1 0-70.62069H207.448276c19.508966 0 35.310345 15.801379 35.310345 35.310345zM547.310345 816.551724v66.758621a377.213793 377.213793 0 0 1-70.62069 0V816.551724c0-19.508966 15.801379-35.310345 35.310345-35.310345s35.310345 15.801379 35.310345 35.310345zM883.310345 547.310345H816.551724c-19.508966 0-35.310345-15.801379-35.310345-35.310345s15.801379-35.310345 35.310345-35.310345h66.758621a377.213793 377.213793 0 0 1 0 70.62069zM547.310345 140.689655V207.448276c0 19.508966-15.801379 35.310345-35.310345 35.310345s-35.310345-15.801379-35.310345-35.310345V140.689655a377.213793 377.213793 0 0 1 70.62069 0z" fill="#C9EDF2" p-id="9927"></path><path d="M587.475862 146.670345C358.17931 176.573793 176.573793 358.17931 146.670345 587.475862 92.888276 325.914483 323.890759 92.473379 587.475862 146.670345z" fill="#C9EDF2" p-id="9928"></path></svg>